<?xml version="1.0" standalone="no"?>
<!DOCTYPE svg PUBLIC "-//W3C//DTD SVG 20010904//EN"
 "http://www.w3.org/TR/2001/REC-SVG-20010904/DTD/svg10.dtd">
<svg version="1.0" xmlns="http://www.w3.org/2000/svg"
 width="794.000000pt" height="651.000000pt" viewBox="0 0 794.000000 651.000000"
 preserveAspectRatio="xMidYMid meet">

<g transform="translate(0.000000,651.000000) scale(0.100000,-0.100000)"
fill="#000000" stroke="none">
<path d="M3765 5959 c-257 -20 -520 -80 -761 -174 -852 -332 -1481 -1063
-1678 -1950 -49 -216 -60 -333 -60 -595 0 -344 33 -548 140 -870 199 -597 611
-1114 1160 -1452 259 -160 597 -292 884 -346 221 -42 282 -47 540 -47 288 1
426 17 671 80 769 196 1418 724 1769 1440 571 1167 244 2557 -790 3361 -116
91 -249 175 -405 255 -456 237 -955 338 -1470 298z m257 -256 c8 -10 24 -34
35 -53 11 -19 114 -190 228 -380 115 -190 244 -403 287 -475 43 -71 78 -138
78 -150 -1 -24 -95 -284 -108 -297 -6 -6 -28 37 -57 114 -26 67 -148 376 -271
685 -123 310 -224 565 -224 568 0 11 18 4 32 -12z m-212 -3 c0 -6 -102 -266
-226 -578 -124 -312 -258 -648 -297 -747 -39 -99 -75 -186 -80 -192 -12 -16
-277 -19 -277 -3 0 12 75 150 187 345 70 121 561 984 645 1133 27 48 48 66 48
42z m518 0 c107 -14 292 -57 417 -97 500 -160 946 -486 1258 -919 96 -134 257
-420 257 -458 0 -8 -14 -16 -37 -19 -36 -4 -507 -10 -953 -11 l-195 -1 -137
225 c-75 124 -137 232 -137 241 -2 27 47 160 94 256 56 114 124 191 177 200
45 7 64 -6 89 -62 46 -99 -2 -345 -67 -345 -21 0 -74 -50 -94 -91 -62 -120 35
-279 169 -279 71 0 155 60 185 132 30 71 12 135 -55 204 l-40 40 22 69 c17 57
20 88 17 179 -3 101 -6 116 -33 165 -76 139 -238 151 -359 27 -62 -64 -159
-236 -179 -318 -4 -16 -11 -28 -15 -28 -4 0 -73 109 -152 242 -80 134 -200
334 -267 446 -68 112 -123 206 -123 208 0 7 82 4 158 -6z m-701 -20 c-3 -10
-125 -232 -273 -492 -147 -260 -336 -594 -420 -743 l-152 -270 -74 -6 c-119
-10 -1018 -10 -1018 0 0 5 15 45 34 88 108 252 296 523 521 749 285 286 656
506 1034 614 88 25 300 74 345 79 4 1 6 -8 3 -19z m331 -227 c27 -65 115 -284
196 -488 81 -203 184 -459 227 -569 44 -109 77 -201 74 -205 -8 -7 -1097 -19
-1107 -11 -8 6 543 1390 553 1390 4 0 29 -53 57 -117z m1264 -870 c10 -9 18
-30 18 -49 0 -62 -75 -92 -119 -48 -19 17 -19 77 -2 98 18 21 79 21 103 -1z
m-455 -116 c36 -54 153 -258 153 -267 0 -10 -271 -18 -284 -8 -5 4 3 41 18 85
61 175 79 223 85 223 3 0 16 -15 28 -33z m1293 -394 c0 -5 -55 -44 -123 -88
-67 -44 -214 -140 -325 -213 -112 -74 -205 -132 -206 -130 -27 41 -246 416
-246 421 0 4 111 8 248 10 136 1 338 3 450 5 111 1 202 -1 202 -5z m294 -105
c119 -383 139 -780 60 -1213 -9 -49 -21 -96 -27 -102 -5 -7 -28 -13 -51 -13
-68 -1 -128 -19 -194 -61 -35 -21 -65 -39 -67 -39 -1 0 -12 15 -23 33 -11 17
-76 126 -146 240 -69 115 -126 215 -126 223 0 15 63 67 178 147 l74 52 -193 5
-193 5 -83 140 c-45 77 -83 143 -83 147 0 3 82 61 183 127 380 250 642 420
649 421 4 0 23 -51 42 -112z m-2025 -219 c-61 -167 -126 -347 -145 -399 l-33
-95 -567 -3 c-509 -2 -569 -1 -585 14 -13 12 -15 21 -9 37 5 12 73 182 150
377 78 195 144 358 148 361 9 9 1134 26 1145 18 4 -3 -42 -143 -104 -310z
m671 311 c11 -6 77 -108 148 -228 166 -279 155 -256 134 -275 -24 -21 -332
-217 -340 -217 -7 1 -266 645 -277 692 -6 24 -4 27 27 31 72 9 290 6 308 -3z
m-1850 -14 c0 -10 -64 -174 -141 -361 -45 -110 -92 -227 -104 -260 -12 -32
-27 -61 -33 -63 -16 -5 -303 190 -298 203 2 6 63 114 135 241 l131 229 48 6
c57 7 262 11 262 5z m-460 -14 c0 -9 -55 -110 -170 -310 -35 -63 -57 -91 -67
-88 -7 3 -142 92 -300 198 l-287 193 39 6 c70 10 785 10 785 1z m-699 -244
c190 -128 358 -243 374 -255 l30 -21 -19 -39 c-10 -21 -42 -80 -72 -130 l-55
-93 -109 0 -109 0 -28 42 c-83 124 -279 115 -343 -16 -27 -57 -26 -121 5 -182
36 -72 81 -99 164 -99 82 0 146 32 176 87 19 36 20 37 88 40 38 2 71 0 74 -4
4 -8 -16 -46 -169 -317 -210 -369 -288 -501 -298 -501 -17 0 -96 235 -134 402
-44 191 -51 267 -51 548 1 297 4 332 66 590 32 133 47 180 58 180 4 0 163
-105 352 -232z m2705 -176 c92 -231 133 -347 127 -353 -14 -14 -284 -23 -425
-14 l-116 7 53 151 c30 84 66 184 80 222 15 39 47 126 71 195 25 69 47 131 50
139 3 9 8 11 14 5 5 -5 70 -163 146 -352z m749 -270 c27 -45 46 -85 43 -87 -3
-3 -101 -4 -219 -3 l-214 3 155 103 c179 118 158 120 235 -16z m-2807 18 c66
-44 125 -87 132 -95 11 -13 -9 -15 -166 -15 -99 0 -184 4 -191 8 -8 5 3 33 38
95 28 48 54 87 59 87 4 0 62 -36 128 -80z m-748 -120 c26 -26 26 -70 -1 -104
-28 -35 -63 -34 -101 4 -24 25 -29 36 -23 58 13 57 86 81 125 42z m884 -121
c4 -3 -2 -26 -13 -50 -10 -24 -58 -145 -106 -269 -48 -124 -116 -295 -151
-380 l-62 -155 -44 2 c-180 10 -370 6 -453 -10 -105 -20 -115 -20 -115 -7 0 6
75 142 166 302 92 161 180 315 196 343 15 27 51 92 79 143 l51 93 223 -3 c123
-2 226 -6 229 -9z m235 -11 c62 -37 694 -460 734 -490 20 -17 37 -34 37 -39 0
-6 -93 -71 -207 -146 -115 -75 -293 -192 -397 -261 -104 -68 -195 -126 -202
-129 -6 -2 -67 27 -135 66 -68 39 -156 80 -196 93 -42 13 -73 28 -73 36 0 7
56 156 125 330 69 174 147 370 172 434 46 116 48 119 97 127 5 0 25 -9 45 -21z
m1074 16 c12 -4 7 -27 -28 -127 -99 -281 -123 -337 -145 -337 -8 0 -347 226
-604 401 l-78 54 48 6 c63 8 788 11 807 3z m505 -2 c17 -12 6 -20 -188 -147
-91 -59 -189 -124 -218 -143 -29 -19 -55 -32 -58 -29 -5 5 11 56 77 237 23 65
31 76 55 81 43 10 317 10 332 1z m321 -39 c8 -21 45 -118 84 -216 42 -107 66
-181 61 -185 -30 -20 -282 -201 -359 -257 -204 -149 -204 -149 -239 -132 -44
22 -409 271 -413 283 -7 21 786 544 826 544 22 0 29 -7 40 -37z m682 21 c12
-14 9 -20 -21 -46 -61 -52 -371 -270 -391 -275 -13 -4 -21 2 -28 18 -5 13 -34
86 -65 163 -31 76 -56 142 -56 147 0 5 123 9 274 9 240 0 275 -2 287 -16z
m156 -264 c38 -63 106 -176 151 -250 45 -74 82 -137 82 -141 0 -4 -40 -58 -90
-120 -94 -117 -105 -146 -73 -181 18 -20 45 -23 73 -8 10 6 57 59 104 118 137
176 225 247 319 260 l40 5 -7 -39 c-28 -154 -229 -531 -409 -769 -65 -85 -224
-255 -239 -255 -10 0 -12 4 -77 175 -28 72 -82 209 -122 305 -233 570 -282
697 -274 711 3 4 40 33 83 63 294 212 357 255 363 248 4 -4 38 -59 76 -122z
m-607 -332 c12 -35 98 -252 191 -483 92 -230 166 -421 163 -424 -6 -6 -894
589 -894 599 0 5 28 27 63 51 34 23 96 67 137 98 123 92 305 221 311 221 4 0
17 -28 29 -62z m-1291 -75 c-13 -33 -62 -168 -154 -423 -37 -102 -94 -259
-127 -350 -76 -208 -90 -251 -86 -255 2 -1 100 67 218 152 494 354 600 430
688 495 l93 69 37 -22 c20 -12 233 -154 472 -314 239 -161 458 -307 485 -325
28 -19 67 -47 88 -63 37 -29 37 -30 20 -49 -10 -11 -67 -56 -128 -100 -312
-227 -653 -374 -1040 -449 -135 -26 -556 -38 -710 -20 -308 36 -682 156 -919
293 -197 115 -496 336 -496 368 0 4 42 34 93 66 50 32 193 126 317 208 124 82
233 151 243 154 37 10 148 -127 189 -232 24 -63 19 -86 -17 -86 -34 0 -73 -21
-107 -57 -89 -93 -75 -250 31 -330 50 -39 94 -48 150 -33 90 24 150 110 151
216 0 51 -5 69 -35 118 -26 43 -35 70 -35 101 0 97 -57 217 -152 323 -27 29
-48 56 -48 60 0 5 113 83 251 173 138 90 310 203 382 251 73 48 138 87 144 88
10 0 10 -7 2 -27z m341 -113 c100 -67 178 -125 174 -130 -12 -10 -212 -157
-344 -252 -194 -139 -271 -190 -278 -183 -7 7 -1 27 123 360 51 138 99 269
106 293 8 27 17 41 25 38 7 -3 95 -60 194 -126z m-1822 -178 c13 -9 -10 -85
-86 -277 -89 -227 -115 -285 -126 -285 -26 0 -187 212 -291 382 -41 67 -75
125 -75 130 0 9 60 26 155 43 77 14 403 19 423 7z m222 -53 c94 -31 250 -113
250 -132 0 -9 -511 -340 -516 -334 -4 4 140 378 179 465 12 27 9 27 87 1z
m605 -681 c15 -14 28 -38 31 -59 5 -30 2 -40 -26 -67 -35 -36 -59 -40 -95 -16
-70 46 -38 160 47 163 9 1 29 -9 43 -21z"/>
</g>
</svg>
